<svg xmlns="http://www.w3.org/2000/svg" xmlns:xlink="http://www.w3.org/1999/xlink" width="48" height="48" data-name="Слой 1" viewBox="0 0 48 48"><defs><linearGradient id="8GuMZetbzXilIVyKwtxqOb" x1="13.08" x2="13.08" y1="49.047" y2="9.612" data-name="Безымянный градиент 483" gradientUnits="userSpaceOnUse"><stop offset="0" stop-color="#b69b94"/><stop offset=".054" stop-color="#b39790"/><stop offset=".368" stop-color="#a5857c"/><stop offset=".683" stop-color="#9c7a70"/><stop offset="1" stop-color="#99766c"/></linearGradient><linearGradient id="8GuMZetbzXilIVyKwtxqOc" x1="48.74" x2="25.188" y1="40.756" y2="12.555" data-name="Безымянный градиент 486" gradientUnits="userSpaceOnUse"><stop offset="0" stop-color="#99766c"/><stop offset=".259" stop-color="#90695f"/><stop offset=".628" stop-color="#875e53"/><stop offset="1" stop-color="#845a4f"/></linearGradient><linearGradient id="8GuMZetbzXilIVyKwtxqOa" x1="11.136" x2="1.219" y1="38.176" y2="24.816" data-name="Безымянный градиент 497" gradientUnits="userSpaceOnUse"><stop offset="0" stop-color="#535353"/><stop offset=".098" stop-color="#4b4b4b"/><stop offset=".397" stop-color="#373839"/><stop offset=".698" stop-color="#2b2d2e"/><stop offset="1" stop-color="#27292a"/></linearGradient><linearGradient id="8GuMZetbzXilIVyKwtxqOd" x1="8.819" x2="-1.098" y1="39.896" y2="26.536" xlink:href="#8GuMZetbzXilIVyKwtxqOa"/></defs><path fill="url(#8GuMZetbzXilIVyKwtxqOb)" d="M25.116,43.3,1.044,39V7.845l24.072,3.223Z"/><path fill="url(#8GuMZetbzXilIVyKwtxqOc)" d="M47,37.925,25.116,43.3V11.068L47,7.845Z"/><path fill="#b69b94" d="M47,7.845,25.116,11.068,1.044,7.845,24.022,5.7Z"/><path fill="#ede7e4" d="M33.793,9.79l-23.626-2.8,7.964-.745L42.88,8.52Z"/><path fill="#d3c2bd" d="M42.858,14.584l-9.1,1.893q.02-3.344.038-6.687L42.88,8.52Q42.868,11.552,42.858,14.584Z"/><path fill="url(#8GuMZetbzXilIVyKwtxqOa)" d="M5.63,35.618l2.347.449q0-2.283,0-4.567l2.05.314q-1.595-1.833-3.187-3.668l-3,2.721,1.791.274Z"/><path fill="url(#8GuMZetbzXilIVyKwtxqOd)" d="M3.461,35.928v1.618l6.955,1.343.069-1.618Z"/></svg>